<svg width="170" height="56" viewBox="0 0 170 56" fill="none" xmlns="http://www.w3.org/2000/svg">
<path d="M144.89 31.7816L157.669 49.9655C159.036 51.8965 160.241 52.3793 164.662 52.7816V55.2759H146.738C146.738 54.5517 146.738 52.2989 145.291 50.3678L137.334 38.9425L133.316 42.8046V48.1954C133.316 51.7356 135.003 52.1379 139.183 52.8621V55.2759H115.794V52.8621C119.973 52.1379 121.661 51.7356 121.661 48.1954L121.661 11.7937C121.662 8.96908 121.663 7.39484 115.794 6.83908V4.58621C121.5 3.94253 126.805 2.49425 131.708 0L133.316 1.52874V37.8966L145.452 26.4713C147.944 24.1379 146.819 22.7701 142.559 22.3678V19.8736H160.081V22.3678C154.615 22.7701 152.445 24.7011 149.551 27.2759L144.89 31.7816Z" fill="white"/>
<path d="M21.3798 55.2759H0V52.8621C3.69726 52.1379 5.30477 51.7356 5.30477 48.1954V30.5747C5.30477 27.6782 4.66176 26.069 0 25.5057V23.2529C5.30477 22.4483 10.8507 21.0805 15.2713 18.5862L16.8788 20.1149L14.0657 26.8736H16.3162C19.9331 22.7701 23.4696 19.1494 29.8996 19.1494C38.4997 19.1494 40.3484 25.9885 40.3484 31.5402V48.1954C40.3484 51.7356 41.9559 52.1379 45.6531 52.8621V55.2759H24.2733V52.8621L24.3005 52.8551C27.0968 52.1353 28.694 51.7242 28.694 48.1954V32.6667C28.694 27.1954 26.765 25.5862 24.1126 25.5862C22.0228 25.5862 19.3704 26.4713 16.9592 29.6897V48.1954C16.9592 51.7242 18.5563 52.1353 21.3526 52.8551L21.3798 52.8621V55.2759Z" fill="white"/>
<path fill-rule="evenodd" clip-rule="evenodd" d="M56.2018 37.0115C57.1663 44.7356 61.6673 49.5632 68.4992 49.5632C71.9553 49.5632 75.6526 48.2759 77.2601 46.1839L78.948 47.5517C77.019 52.7816 71.3123 56 63.6767 56C52.3438 56 44.0651 49 44.0651 37.6552C44.0651 25.908 53.2279 19.1494 63.3552 19.1494C75.733 19.1494 81.9219 29.2069 78.5461 37.0115H56.2018ZM67.7758 33.7126C68.8207 28.1609 67.3739 22.4483 62.7122 22.4483C58.9345 22.4483 55.9606 25.9885 55.9606 33.7126H67.7758Z" fill="white"/>
<path fill-rule="evenodd" clip-rule="evenodd" d="M105.158 49.5632C98.3259 49.5632 93.8249 44.7356 92.8604 37.0115H115.205C118.58 29.2069 112.392 19.1494 100.014 19.1494C89.8865 19.1494 80.7237 25.908 80.7237 37.6552C80.7237 49 89.0024 56 100.335 56C107.971 56 113.678 52.7816 115.607 47.5517L113.919 46.1839C112.311 48.2759 108.614 49.5632 105.158 49.5632ZM99.3708 22.4483C104.033 22.4483 105.479 28.1609 104.434 33.7126H92.6193C92.6193 25.9885 95.5932 22.4483 99.3708 22.4483Z" fill="white"/>
<path fill-rule="evenodd" clip-rule="evenodd" d="M167.255 52.5911V54.4884H167.56V53.6823H167.74C167.848 53.6823 167.929 53.7041 167.985 53.7477C168.066 53.8069 168.173 53.9541 168.305 54.1893L168.473 54.4884H168.847L168.615 54.1169C168.505 53.9409 168.412 53.8155 168.335 53.7407C168.295 53.7017 168.241 53.6682 168.174 53.6402C168.338 53.6277 168.468 53.5701 168.566 53.4673C168.666 53.3645 168.716 53.2438 168.716 53.1051C168.716 53.007 168.686 52.9143 168.627 52.8271C168.568 52.7398 168.489 52.6791 168.389 52.6448C168.289 52.609 168.128 52.5911 167.906 52.5911H167.255ZM167.932 53.4206H167.56V52.8481H167.908C168.058 52.8481 168.16 52.859 168.214 52.8808C168.27 52.9026 168.314 52.9361 168.345 52.9813C168.376 53.0249 168.391 53.0747 168.391 53.1308C168.391 53.2181 168.359 53.2882 168.293 53.3411C168.23 53.3941 168.109 53.4206 167.932 53.4206Z" fill="white"/>
<path fill-rule="evenodd" clip-rule="evenodd" d="M168.893 51.9789C168.612 51.8262 168.323 51.7499 168.027 51.7499C167.732 51.7499 167.443 51.8262 167.161 51.9789C166.88 52.13 166.659 52.3473 166.501 52.6308C166.344 52.9127 166.265 53.2072 166.265 53.514C166.265 53.8178 166.343 54.1099 166.498 54.3903C166.654 54.6707 166.871 54.8888 167.15 55.0445C167.43 55.1988 167.722 55.2759 168.027 55.2759C168.332 55.2759 168.624 55.1988 168.903 55.0445C169.183 54.8888 169.4 54.6707 169.554 54.3903C169.709 54.1099 169.787 53.8178 169.787 53.514C169.787 53.2072 169.709 52.9127 169.551 52.6308C169.394 52.3473 169.175 52.13 168.893 51.9789ZM167.304 52.2335C167.539 52.1058 167.78 52.0419 168.027 52.0419C168.273 52.0419 168.514 52.1058 168.749 52.2335C168.983 52.3597 169.166 52.5412 169.297 52.778C169.429 53.0132 169.495 53.2586 169.495 53.514C169.495 53.7679 169.431 54.0117 169.302 54.2454C169.173 54.4775 168.991 54.659 168.758 54.7898C168.524 54.9191 168.281 54.9838 168.027 54.9838C167.774 54.9838 167.53 54.9191 167.297 54.7898C167.063 54.659 166.881 54.4775 166.75 54.2454C166.621 54.0117 166.557 53.7679 166.557 53.514C166.557 53.2586 166.623 53.0132 166.755 52.778C166.887 52.5412 167.07 52.3597 167.304 52.2335Z" fill="white"/>
</svg>
