<svg width="39" height="13" viewBox="0 0 39 13" fill="none" xmlns="http://www.w3.org/2000/svg">
<g clip-path="url(#clip0_5595_75454)">
<path d="M32.6111 7.38137L35.4875 11.4683C35.795 11.9023 36.0664 12.0108 37.0613 12.1012V12.6618H33.0272C33.0272 12.4991 33.0272 11.9927 32.7015 11.5587L30.9106 8.99083L30.0061 9.85885V11.0705C30.0061 11.8661 30.386 11.9566 31.3267 12.1193V12.6618L26.0623 12.6618V12.1193C27.003 11.9566 27.3829 11.8661 27.3829 11.0705L27.3829 2.88898C27.3832 2.25413 27.3833 1.90031 26.0623 1.7754V1.26906C27.3468 1.12439 28.5407 0.798878 29.6442 0.238281L30.0061 0.581873V8.75574L32.7377 6.18784C33.2985 5.66341 33.0453 5.35599 32.0865 5.26557V4.70497L36.0302 4.70497V5.26557C34.8 5.35599 34.3116 5.79 33.6603 6.36868L32.6111 7.38137Z" fill="#F4F7FF"/>
<path d="M4.81207 12.6618H0L0 12.1193C0.832163 11.9566 1.19397 11.8661 1.19397 11.0705L1.19397 7.11011C1.19397 6.4591 1.04925 6.09742 0 5.97084L0 5.46449C1.19397 5.28365 2.44222 4.97623 3.43719 4.41563L3.799 4.75922L3.16584 6.27826H3.67237C4.48644 5.35599 5.28242 4.54222 6.72966 4.54222C8.66535 4.54222 9.08143 6.07934 9.08143 7.32712V11.0705C9.08143 11.8661 9.44324 11.9566 10.2754 12.1193V12.6618L5.46333 12.6618V12.1193L5.46946 12.1177C6.09883 11.956 6.45831 11.8636 6.45831 11.0705L6.45831 7.58029C6.45831 6.3506 6.02413 5.98892 5.42715 5.98892C4.9568 5.98892 4.35981 6.18784 3.81709 6.91119L3.81709 11.0705C3.81709 11.8636 4.17657 11.956 4.80595 12.1177L4.81207 12.1193V12.6618Z" fill="#F4F7FF"/>
<path fill-rule="evenodd" clip-rule="evenodd" d="M12.6496 8.55682C12.8667 10.2929 13.8798 11.3779 15.4175 11.3779C16.1954 11.3779 17.0275 11.0885 17.3893 10.6184L17.7692 10.9258C17.3351 12.1012 16.0507 12.8246 14.3321 12.8246C11.7813 12.8246 9.91797 11.2513 9.91797 8.70149C9.91797 6.06126 11.9803 4.54222 14.2597 4.54222C17.0456 4.54222 18.4386 6.80269 17.6788 8.55682L12.6496 8.55682ZM15.2547 7.81538C15.4898 6.5676 15.1642 5.28365 14.115 5.28365C13.2647 5.28365 12.5954 6.07934 12.5954 7.81538L15.2547 7.81538Z" fill="#F4F7FF"/>
<path fill-rule="evenodd" clip-rule="evenodd" d="M23.6684 11.3779C22.1308 11.3779 21.1177 10.2929 20.9006 8.55682H25.9298C26.6896 6.80269 25.2966 4.54222 22.5107 4.54222C20.2312 4.54222 18.1689 6.06126 18.1689 8.70149C18.1689 11.2513 20.0323 12.8246 22.583 12.8246C24.3016 12.8246 25.586 12.1012 26.0202 10.9258L25.6403 10.6184C25.2785 11.0885 24.4463 11.3779 23.6684 11.3779ZM22.3659 5.28365C23.4152 5.28365 23.7408 6.5676 23.5056 7.81538H20.8463C20.8463 6.07934 21.5157 5.28365 22.3659 5.28365Z" fill="#F4F7FF"/>
<path fill-rule="evenodd" clip-rule="evenodd" d="M37.6449 12.0584V12.4848H37.7137V12.3037H37.7542C37.7784 12.3037 37.7967 12.3086 37.8094 12.3184C37.8276 12.3317 37.8516 12.3648 37.8813 12.4176L37.9192 12.4848H38.0032L37.9512 12.4013C37.9263 12.3618 37.9053 12.3336 37.8882 12.3168C37.8791 12.308 37.867 12.3005 37.8519 12.2942C37.8887 12.2914 37.9181 12.2785 37.9402 12.2553C37.9626 12.2322 37.9738 12.2051 37.9738 12.1739C37.9738 12.1519 37.9671 12.1311 37.9538 12.1115C37.9405 12.0918 37.9227 12.0782 37.9002 12.0705C37.8778 12.0624 37.8416 12.0584 37.7915 12.0584H37.6449ZM37.7973 12.2448H37.7137V12.1162H37.792C37.8256 12.1162 37.8486 12.1186 37.8608 12.1235C37.8734 12.1284 37.8833 12.136 37.8903 12.1461C37.8973 12.1559 37.9008 12.1671 37.9008 12.1797C37.9008 12.1993 37.8934 12.2151 37.8787 12.227C37.8643 12.2389 37.8372 12.2448 37.7973 12.2448Z" fill="#F4F7FF"/>
<path fill-rule="evenodd" clip-rule="evenodd" d="M38.0137 11.9208C37.9503 11.8865 37.8854 11.8693 37.8188 11.8693C37.7523 11.8693 37.6873 11.8865 37.6239 11.9208C37.5605 11.9548 37.5109 12.0036 37.4752 12.0673C37.4398 12.1307 37.4222 12.1969 37.4222 12.2659C37.4222 12.3341 37.4397 12.3998 37.4747 12.4628C37.5097 12.5258 37.5586 12.5748 37.6213 12.6098C37.6843 12.6445 37.7502 12.6618 37.8188 12.6618C37.8875 12.6618 37.9531 12.6445 38.0158 12.6098C38.0789 12.5748 38.1277 12.5258 38.1624 12.4628C38.1974 12.3998 38.2149 12.3341 38.2149 12.2659C38.2149 12.1969 38.1972 12.1307 38.1619 12.0673C38.1265 12.0036 38.0771 11.9548 38.0137 11.9208ZM37.6559 11.9781C37.7088 11.9493 37.7631 11.935 37.8188 11.935C37.8741 11.935 37.9283 11.9493 37.9811 11.9781C38.034 12.0064 38.0752 12.0472 38.1046 12.1004C38.1344 12.1533 38.1493 12.2084 38.1493 12.2659C38.1493 12.3229 38.1347 12.3777 38.1057 12.4302C38.0766 12.4824 38.0358 12.5232 37.9832 12.5526C37.9307 12.5817 37.8759 12.5962 37.8188 12.5962C37.7617 12.5962 37.7069 12.5817 37.6544 12.5526C37.6018 12.5232 37.5609 12.4824 37.5314 12.4302C37.5024 12.3777 37.4878 12.3229 37.4878 12.2659C37.4878 12.2084 37.5027 12.1533 37.5325 12.1004C37.5623 12.0472 37.6034 12.0064 37.6559 11.9781Z" fill="#F4F7FF"/>
</g>
<defs>
<clipPath id="clip0_5595_75454">
<rect width="38.2149" height="12.5863" fill="white" transform="translate(0 0.238281)"/>
</clipPath>
</defs>
</svg>
