<svg width="26" height="24" viewBox="0 0 26 24" fill="none" xmlns="http://www.w3.org/2000/svg">
<path d="M16.0553 1.24822C14.2578 0.405541 12.2434 0.405541 10.446 1.24822L1.98234 5.21615C0.621294 5.85425 0.266448 7.65354 0.91779 8.89712V15.1626C0.91779 15.6866 1.34254 16.1113 1.86647 16.1113C2.39041 16.1113 2.81516 15.6866 2.81516 15.1626V10.3206L10.4461 13.8981C12.2436 14.7408 14.2579 14.7408 16.0554 13.8981L24.5191 9.93022C26.3601 9.06711 26.3601 6.07933 24.5191 5.21622L16.0553 1.24822Z" fill="#1A56DB"/>
<path d="M4.39453 13.1572V17.8509C4.39453 19.1259 5.03141 20.3198 6.14685 20.9375C8.00421 21.966 10.9771 23.3844 13.2489 23.3844C15.5207 23.3844 18.4936 21.966 20.351 20.9375C21.4664 20.3198 22.1033 19.1259 22.1033 17.8509V13.1574L16.859 15.6159C14.5513 16.6978 11.9467 16.6978 9.63895 15.6159L4.39453 13.1572Z" fill="#1A56DB"/>
</svg>
