<svg width="25" height="24" viewBox="0 0 25 24" fill="none" xmlns="http://www.w3.org/2000/svg">
<path d="M12.5214 20.263L12.746 21.8309C12.8114 22.2947 13.005 22.7312 13.3049 23.0913C13.6048 23.4515 13.9993 23.721 14.4441 23.8697C14.8888 24.0183 15.3663 24.0403 15.8228 23.9331C16.2794 23.8258 16.697 23.5936 17.0288 23.2626L19.7052 20.5895C19.9159 20.3794 20.0456 20.1018 20.0711 19.8055L20.4282 15.6062C17.902 17.2131 14.9303 18.9233 12.5214 20.263Z" fill="#1A56DB"/>
<path d="M24.4208 1.85743C24.3575 1.48191 24.1787 1.13542 23.9091 0.866157C23.6395 0.596898 23.2926 0.418274 22.9166 0.355143C21.7353 0.147045 20.5387 0.0370212 19.3392 0.026202C17.5505 -0.127454 15.7696 0.398695 14.3524 1.49951C12.1088 3.74034 7.3566 12.2437 5.8777 14.9357C5.74732 15.174 5.69811 15.4483 5.73749 15.717C5.77687 15.9857 5.9027 16.2344 6.09601 16.4254L8.33329 18.6561C8.4497 18.7748 8.58846 18.8692 8.74156 18.9341C8.89467 18.999 9.05911 19.033 9.22542 19.0342C9.43506 19.0347 9.64135 18.9818 9.82481 18.8805C12.5201 17.4046 21.0339 12.6583 23.2775 10.4175C25.2536 8.435 24.7943 4.02265 24.4208 1.85743ZM19.7052 8.62909C19.3522 8.9815 18.9025 9.22147 18.413 9.31864C17.9235 9.41582 17.4161 9.36584 16.955 9.17503C16.4939 8.98422 16.0998 8.66115 15.8225 8.24665C15.5453 7.83216 15.3973 7.34487 15.3973 6.84638C15.3973 6.34789 15.5453 5.86059 15.8225 5.4461C16.0998 5.03161 16.4939 4.70853 16.955 4.51772C17.4161 4.32691 17.9235 4.27694 18.413 4.37411C18.9025 4.47129 19.3522 4.71125 19.7052 5.06367C19.9396 5.29774 20.1256 5.57566 20.2525 5.88154C20.3794 6.18742 20.4447 6.51528 20.4447 6.84638C20.4447 7.17748 20.3794 7.50533 20.2525 7.81121C20.1256 8.1171 19.9396 8.39501 19.7052 8.62909Z" fill="#1A56DB"/>
<path d="M9.15603 4.34277L4.95277 4.69944C4.65678 4.72493 4.37928 4.85391 4.16915 5.06367L1.49022 7.73679C1.15849 8.06772 0.925627 8.48441 0.817732 8.94012C0.709838 9.39584 0.731181 9.87256 0.879368 10.3168C1.02756 10.7611 1.29673 11.1554 1.6567 11.4554C2.01668 11.7555 2.45322 11.9494 2.91739 12.0155L4.48714 12.2399C5.82976 9.83395 7.54085 6.86591 9.15603 4.34277Z" fill="#1A56DB"/>
</svg>
