<svg width="25" height="24" viewBox="0 0 25 24" fill="none" xmlns="http://www.w3.org/2000/svg">
<path fill-rule="evenodd" clip-rule="evenodd" d="M2.65 0C2.01348 0 1.40303 0.252856 0.952944 0.702944C0.502856 1.15303 0.25 1.76348 0.25 2.4L0.25 20C0.25 20.6365 0.502856 21.247 0.952944 21.6971C1.40303 22.1471 2.01348 22.4 2.65 22.4H3.45V24H5.05V22.4H19.45V24H21.05V22.4H21.85C22.4865 22.4 23.097 22.1471 23.5471 21.6971C23.9971 21.247 24.25 20.6365 24.25 20V2.4C24.25 1.76348 23.9971 1.15303 23.5471 0.702944C23.097 0.252856 22.4865 0 21.85 0L2.65 0ZM3.45 4.8V9.6H5.05V4.8H3.45ZM15.45 8C14.3891 8 13.3717 8.42143 12.6216 9.17157C11.8714 9.92172 11.45 10.9391 11.45 12C11.45 13.0609 11.8714 14.0783 12.6216 14.8284C13.3717 15.5786 14.3891 16 15.45 16C16.5109 16 17.5283 15.5786 18.2784 14.8284C19.0286 14.0783 19.45 13.0609 19.45 12C19.45 10.9391 19.0286 9.92172 18.2784 9.17157C17.5283 8.42143 16.5109 8 15.45 8ZM3.45 17.6V12.8H5.05V17.6H3.45Z" fill="#1A56DB"/>
</svg>
