<svg width="25" height="24" viewBox="0 0 25 24" fill="none" xmlns="http://www.w3.org/2000/svg">
<path fill-rule="evenodd" clip-rule="evenodd" d="M11.814 0.153677C12.4175 -0.0512257 13.0825 -0.0512257 13.686 0.153677L23.0193 3.32386C23.5277 3.49647 23.9659 3.80555 24.2751 4.20976C24.5844 4.61397 24.7501 5.09406 24.75 5.58585V12.0627C24.75 14.0812 24.1295 16.0599 22.9579 17.777C21.7863 19.4941 20.1099 20.8818 18.1167 21.7846L13.6447 23.8086C13.3669 23.9345 13.0606 24 12.75 24C12.4394 24 12.1331 23.9345 11.8553 23.8086L7.38333 21.7834C5.39005 20.8806 3.71369 19.4929 2.54209 17.7758C1.37049 16.0587 0.749952 14.08 0.750001 12.0615V5.58706C0.749661 5.09507 0.915207 4.61471 1.22449 4.21026C1.53377 3.8058 1.97204 3.49655 2.48067 3.32386L11.814 0.153677ZM14.0833 11.6714C14.5917 11.4055 14.989 10.9952 15.2136 10.5039C15.4382 10.0127 15.4776 9.46809 15.3257 8.95452C15.1738 8.44095 14.839 7.98714 14.3733 7.66346C13.9076 7.33978 13.337 7.16432 12.75 7.1643C12.163 7.16432 11.5924 7.33978 11.1267 7.66346C10.661 7.98714 10.3262 8.44095 10.1743 8.95452C10.0224 9.46809 10.0618 10.0127 10.2864 10.5039C10.511 10.9952 10.9083 11.4055 11.4167 11.6714V15.6181C11.4167 15.9384 11.5571 16.2456 11.8072 16.4721C12.0572 16.6986 12.3964 16.8258 12.75 16.8258C13.1036 16.8258 13.4428 16.6986 13.6928 16.4721C13.9429 16.2456 14.0833 15.9384 14.0833 15.6181V11.6714Z" fill="#1A56DB"/>
</svg>
